<svg id="solid" viewBox="0 0 32 32" xmlns="http://www.w3.org/2000/svg"><g><path d="m3.8946 22.7782 5.8848 3.9824-5.6025 3.8988c-.8885.4181-1.8814-.2613-1.8292-1.2334z"/><path d="m22.2701 8.8241-11.3619 16.8076-6.3865-4.3273 11.3619-16.7972z"/><path d="m25.0086 4.779-1.8606 2.749-6.3865-4.3273 1.8606-2.7385c.324-.4808.9721-.6063 1.4424-.2822l4.6618 3.1567c.4808.3136.6063.9721.2822 1.4424z"/></g><path d="m12.8906 32c-2.4549 0-3.7921-1.0871-3.8768-1.1586l1.0085-1.2004-.5043.6002.4981-.6053c.1041.0847 2.5978 2.018 7.3698-.4527 5.3273-2.757 10.5148-2.5713 12.2684-.8202l-1.1085 1.1096c-1.0177-1.0162-5.3753-1.5163-10.4392 1.1029-2.0803 1.0764-3.8268 1.4245-5.216 1.4245z"/></svg>